<?xml version="1.0" encoding="utf-8"?>
<!-- Generator: Adobe Illustrator 23.0.0, SVG Export Plug-In . SVG Version: 6.00 Build 0)  -->
<svg version="1.1" id="Layer_1" xmlns="http://www.w3.org/2000/svg" xmlns:xlink="http://www.w3.org/1999/xlink" x="0px" y="0px"
	 viewBox="0 0 72 72" style="enable-background:new 0 0 72 72;" xml:space="preserve">
<style type="text/css">
	.st0{fill:#fc0404;}
</style>
<g>
	<path class="st0" d="M5,69.8v-9.1h4.7c0.9,0,1.5,0.1,2,0.2s0.8,0.4,1.1,0.8c0.3,0.4,0.4,0.9,0.4,1.5c0,0.5-0.1,0.9-0.3,1.3
		c-0.2,0.4-0.5,0.7-0.9,0.9c-0.2,0.2-0.6,0.3-1,0.4c0.3,0.1,0.6,0.2,0.7,0.3c0.1,0.1,0.3,0.2,0.4,0.5c0.2,0.3,0.3,0.4,0.4,0.6
		l1.4,2.7h-3.2L9.3,67c-0.2-0.4-0.4-0.6-0.5-0.7c-0.2-0.1-0.4-0.2-0.7-0.2H7.9v3.7L5,69.8L5,69.8z M7.9,64.4h1.2
		c0.1,0,0.4,0,0.8-0.1c0.2,0,0.3-0.1,0.5-0.3c0.1-0.2,0.2-0.3,0.2-0.5c0-0.3-0.1-0.5-0.3-0.7s-0.5-0.2-1.1-0.2H7.9V64.4L7.9,64.4z"
		/>
	<path class="st0" d="M15.1,65.3c0-1.5,0.4-2.7,1.2-3.5c0.8-0.8,2-1.3,3.5-1.3c1.5,0,2.7,0.4,3.5,1.2c0.8,0.8,1.2,2,1.2,3.4
		c0,1.1-0.2,1.9-0.5,2.6c-0.4,0.7-0.9,1.2-1.6,1.6C21.8,69.8,21,70,19.9,70c-1,0-1.9-0.2-2.6-0.5c-0.7-0.3-1.2-0.8-1.6-1.6
		C15.3,67.2,15.1,66.3,15.1,65.3 M17.9,65.3c0,0.9,0.2,1.6,0.5,2c0.3,0.4,0.8,0.6,1.4,0.6c0.6,0,1.1-0.2,1.4-0.6s0.5-1.1,0.5-2.1
		c0-0.9-0.2-1.5-0.5-1.9c-0.4-0.4-0.8-0.6-1.4-0.6c-0.6,0-1,0.2-1.4,0.6C18.1,63.7,17.9,64.4,17.9,65.3"/>
	<path class="st0" d="M32.8,60.7h2.8v5.4c0,0.5-0.1,1.1-0.3,1.5s-0.4,0.9-0.8,1.3s-0.7,0.6-1.1,0.8c-0.5,0.2-1.2,0.3-2,0.3
		c-0.4,0-0.9,0-1.5-0.1s-1-0.2-1.3-0.4c-0.4-0.2-0.7-0.4-1-0.8c-0.3-0.3-0.5-0.7-0.6-1.1c-0.2-0.6-0.3-1.1-0.3-1.5v-5.4h2.8v5.6
		c0,0.5,0.1,0.9,0.4,1.2c0.3,0.3,0.7,0.4,1.1,0.4s0.9-0.1,1.1-0.4s0.4-0.7,0.4-1.2L32.8,60.7L32.8,60.7z"/>
	<polygon class="st0" points="37.6,60.7 46.2,60.7 46.2,63 43.3,63 43.3,69.8 40.5,69.8 40.5,63 37.6,63 	"/>
	<polygon class="st0" points="48.2,60.7 55.8,60.7 55.8,62.7 51,62.7 51,64.1 55.4,64.1 55.4,66 51,66 51,67.8 55.9,67.8 55.9,69.8 
		48.2,69.8 	"/>
	<polygon class="st0" points="58.2,60.7 60.9,60.7 64.3,65.8 64.3,60.7 67,60.7 67,69.8 64.3,69.8 60.9,64.8 60.9,69.8 58.2,69.8 	
		"/>
	<path class="st0" d="M66.8,55.5L65.3,53c-0.2-0.3-0.4-0.4-0.8-0.4H36.9c-0.7,0-1.1-0.7-0.8-1.3L47,30.9c0.3-0.6,1.2-0.6,1.5,0
		l6.7,11.6c0.2,0.3,0.5,0.4,0.8,0.4h2.9c0.7,0,1.1-0.7,0.8-1.3L46.5,18.9c-0.3-0.6-1.2-0.6-1.5,0L35,36.3c-0.3,0.5-1.1,0.5-1.4,0
		l-2.3-3.9c-0.1-0.3-0.1-0.6,0-0.8L42.6,12c0.3-0.4,0.3-1,0-1.5L38,2.7c-0.6-1-2-1-2.5,0L5.2,54.8c-0.6,1,0.1,2.2,1.3,2.2l9.3-0.1
		c0.5,0,1-0.3,1.2-0.7l9.5-16.4c0.3-0.5,1.1-0.5,1.4,0l2.3,3.9c0.1,0.3,0.1,0.6,0,0.8l-5.5,11c-0.3,0.6,0.1,1.3,0.8,1.3h40.6
		C66.8,56.8,67.2,56.1,66.8,55.5"/>
</g>
</svg>
